<svg xmlns="http://www.w3.org/2000/svg" viewBox="0 0 123.00 79.00" role="img">
  <g>
    <path d="M 17.00 6.00 V 62.00 H 117.00" fill="none" stroke="var(--graphite)" stroke-width="0.45"/>
    <line x1="15.40" y1="62.00" x2="17.00" y2="62.00" stroke="var(--graphite)" stroke-width="0.45"/>
    <text x="14.20" y="63.00" text-anchor="end" font-size="3.0" fill="var(--graphite)" stroke="none" font-family="var(--mono)">0</text>
    <line x1="15.40" y1="43.33" x2="17.00" y2="43.33" stroke="var(--graphite)" stroke-width="0.45"/>
    <text x="14.20" y="44.33" text-anchor="end" font-size="3.0" fill="var(--graphite)" stroke="none" font-family="var(--mono)">4</text>
    <line x1="15.40" y1="24.67" x2="17.00" y2="24.67" stroke="var(--graphite)" stroke-width="0.45"/>
    <text x="14.20" y="25.67" text-anchor="end" font-size="3.0" fill="var(--graphite)" stroke="none" font-family="var(--mono)">8</text>
    <line x1="15.40" y1="6.00" x2="17.00" y2="6.00" stroke="var(--graphite)" stroke-width="0.45"/>
    <text x="14.20" y="7.00" text-anchor="end" font-size="3.0" fill="var(--graphite)" stroke="none" font-family="var(--mono)">12</text>
    <line x1="37.00" y1="62.00" x2="37.00" y2="63.60" stroke="var(--graphite)" stroke-width="0.45"/>
    <text x="37.00" y="67.00" text-anchor="middle" font-size="3.0" fill="var(--graphite)" stroke="none" font-family="var(--mono)">500</text>
    <line x1="45.56" y1="62.00" x2="45.56" y2="63.60" stroke="var(--graphite)" stroke-width="0.45"/>
    <text x="45.56" y="67.00" text-anchor="middle" font-size="3.0" fill="var(--graphite)" stroke="none" font-family="var(--mono)">1000</text>
    <line x1="62.67" y1="62.00" x2="62.67" y2="63.60" stroke="var(--graphite)" stroke-width="0.45"/>
    <text x="62.67" y="67.00" text-anchor="middle" font-size="3.0" fill="var(--graphite)" stroke="none" font-family="var(--mono)">2000</text>
    <line x1="79.78" y1="62.00" x2="79.78" y2="63.60" stroke="var(--graphite)" stroke-width="0.45"/>
    <text x="79.78" y="67.00" text-anchor="middle" font-size="3.0" fill="var(--graphite)" stroke="none" font-family="var(--mono)">3000</text>
    <line x1="96.89" y1="62.00" x2="96.89" y2="63.60" stroke="var(--graphite)" stroke-width="0.45"/>
    <text x="96.89" y="67.00" text-anchor="middle" font-size="3.0" fill="var(--graphite)" stroke="none" font-family="var(--mono)">4000</text>
    <line x1="114.00" y1="62.00" x2="114.00" y2="63.60" stroke="var(--graphite)" stroke-width="0.45"/>
    <text x="114.00" y="67.00" text-anchor="middle" font-size="3.0" fill="var(--graphite)" stroke="none" font-family="var(--mono)">5000</text>
    <text x="77.00" y="72.80" text-anchor="middle" font-size="3.2" fill="var(--graphite)" stroke="none" font-family="var(--mono)">temperature / K</text>
    <text x="6.50" y="34.00" text-anchor="middle" font-size="3.2" fill="var(--graphite)" stroke="none" font-family="var(--mono)" transform="rotate(-90 6.50 34.00)">sp³ / % of atoms</text>
    <polyline data-size="40" points="37.00,62.00 45.56,62.00 62.67,62.00 79.78,62.00 96.89,62.00 114.00,62.00" fill="none" stroke="var(--graphite)" stroke-width="0.7" stroke-linejoin="round" stroke-linecap="round"/>
    <circle cx="37.00" cy="62.00" r="0.9" fill="var(--graphite)" stroke="none"/>
    <circle cx="45.56" cy="62.00" r="0.9" fill="var(--graphite)" stroke="none"/>
    <circle cx="62.67" cy="62.00" r="0.9" fill="var(--graphite)" stroke="none"/>
    <circle cx="79.78" cy="62.00" r="0.9" fill="var(--graphite)" stroke="none"/>
    <circle cx="96.89" cy="62.00" r="0.9" fill="var(--graphite)" stroke="none"/>
    <circle cx="114.00" cy="62.00" r="0.9" fill="var(--graphite)" stroke="none"/>
    <polyline data-size="60" points="37.00,62.00 45.56,62.00 62.67,62.00 79.78,62.00 96.89,62.00 114.00,62.00" fill="none" stroke="var(--graphite)" stroke-width="0.7" stroke-linejoin="round" stroke-linecap="round"/>
    <circle cx="37.00" cy="62.00" r="0.9" fill="var(--graphite)" stroke="none"/>
    <circle cx="45.56" cy="62.00" r="0.9" fill="var(--graphite)" stroke="none"/>
    <circle cx="62.67" cy="62.00" r="0.9" fill="var(--graphite)" stroke="none"/>
    <circle cx="79.78" cy="62.00" r="0.9" fill="var(--graphite)" stroke="none"/>
    <circle cx="96.89" cy="62.00" r="0.9" fill="var(--graphite)" stroke="none"/>
    <circle cx="114.00" cy="62.00" r="0.9" fill="var(--graphite)" stroke="none"/>
    <polyline data-size="80" points="37.00,62.00 45.56,56.17 62.67,62.00 79.78,62.00 96.89,62.00 114.00,62.00" fill="none" stroke="var(--graphite)" stroke-width="0.7" stroke-linejoin="round" stroke-linecap="round"/>
    <circle cx="37.00" cy="62.00" r="0.9" fill="var(--graphite)" stroke="none"/>
    <circle cx="45.56" cy="56.17" r="0.9" fill="var(--graphite)" stroke="none"/>
    <circle cx="62.67" cy="62.00" r="0.9" fill="var(--graphite)" stroke="none"/>
    <circle cx="79.78" cy="62.00" r="0.9" fill="var(--graphite)" stroke="none"/>
    <circle cx="96.89" cy="62.00" r="0.9" fill="var(--graphite)" stroke="none"/>
    <circle cx="114.00" cy="62.00" r="0.9" fill="var(--graphite)" stroke="none"/>
    <polyline data-size="120" points="37.00,54.21 45.56,62.00 62.67,62.00 79.78,62.00 96.89,62.00 114.00,62.00" fill="none" stroke="var(--graphite)" stroke-width="0.7" stroke-linejoin="round" stroke-linecap="round"/>
    <circle cx="37.00" cy="54.21" r="0.9" fill="var(--graphite)" stroke="none"/>
    <circle cx="45.56" cy="62.00" r="0.9" fill="var(--graphite)" stroke="none"/>
    <circle cx="62.67" cy="62.00" r="0.9" fill="var(--graphite)" stroke="none"/>
    <circle cx="79.78" cy="62.00" r="0.9" fill="var(--graphite)" stroke="none"/>
    <circle cx="96.89" cy="62.00" r="0.9" fill="var(--graphite)" stroke="none"/>
    <circle cx="114.00" cy="62.00" r="0.9" fill="var(--graphite)" stroke="none"/>
    <polyline data-size="160" points="37.00,56.17 45.56,50.33 62.67,56.17 79.78,62.00 96.89,62.00 114.00,62.00" fill="none" stroke="var(--graphite)" stroke-width="0.7" stroke-linejoin="round" stroke-linecap="round"/>
    <circle cx="37.00" cy="56.17" r="0.9" fill="var(--graphite)" stroke="none"/>
    <circle cx="45.56" cy="50.33" r="0.9" fill="var(--graphite)" stroke="none"/>
    <circle cx="62.67" cy="56.17" r="0.9" fill="var(--graphite)" stroke="none"/>
    <circle cx="79.78" cy="62.00" r="0.9" fill="var(--graphite)" stroke="none"/>
    <circle cx="96.89" cy="62.00" r="0.9" fill="var(--graphite)" stroke="none"/>
    <circle cx="114.00" cy="62.00" r="0.9" fill="var(--graphite)" stroke="none"/>
    <polyline data-size="373" points="37.00,43.24 45.56,44.50 62.67,53.23 79.78,60.74 96.89,59.48 114.00,60.74" fill="none" stroke="var(--ink)" stroke-width="0.7" stroke-linejoin="round" stroke-linecap="round"/>
    <circle cx="37.00" cy="43.24" r="0.9" fill="var(--ink)" stroke="none"/>
    <circle cx="45.56" cy="44.50" r="0.9" fill="var(--ink)" stroke="none"/>
    <circle cx="62.67" cy="53.23" r="0.9" fill="var(--ink)" stroke="none"/>
    <circle cx="79.78" cy="60.74" r="0.9" fill="var(--ink)" stroke="none"/>
    <circle cx="96.89" cy="59.48" r="0.9" fill="var(--ink)" stroke="none"/>
    <circle cx="114.00" cy="60.74" r="0.9" fill="var(--ink)" stroke="none"/>
    <polyline data-size="686" points="37.00,45.01 45.56,40.25 62.67,51.78 79.78,60.65 96.89,62.00 114.00,61.30" fill="none" stroke="var(--ink)" stroke-width="0.7" stroke-linejoin="round" stroke-linecap="round"/>
    <circle cx="37.00" cy="45.01" r="0.9" fill="var(--ink)" stroke="none"/>
    <circle cx="45.56" cy="40.25" r="0.9" fill="var(--ink)" stroke="none"/>
    <circle cx="62.67" cy="51.78" r="0.9" fill="var(--ink)" stroke="none"/>
    <circle cx="79.78" cy="60.65" r="0.9" fill="var(--ink)" stroke="none"/>
    <circle cx="96.89" cy="62.00" r="0.9" fill="var(--ink)" stroke="none"/>
    <circle cx="114.00" cy="61.30" r="0.9" fill="var(--ink)" stroke="none"/>
    <polyline data-size="1000" points="37.00,25.13 45.56,9.73 62.67,48.93 79.78,59.67 96.89,62.00 114.00,62.00" fill="none" stroke="var(--ink)" stroke-width="0.7" stroke-linejoin="round" stroke-linecap="round"/>
    <circle cx="37.00" cy="25.13" r="0.9" fill="var(--ink)" stroke="none"/>
    <circle cx="45.56" cy="9.73" r="0.9" fill="var(--ink)" stroke="none"/>
    <circle cx="62.67" cy="48.93" r="0.9" fill="var(--ink)" stroke="none"/>
    <circle cx="79.78" cy="59.67" r="0.9" fill="var(--ink)" stroke="none"/>
    <circle cx="96.89" cy="62.00" r="0.9" fill="var(--ink)" stroke="none"/>
    <circle cx="114.00" cy="62.00" r="0.9" fill="var(--ink)" stroke="none"/>
    <text x="34.50" y="55.21" text-anchor="end" font-size="3.0" fill="var(--graphite)" stroke="none" font-family="var(--mono)">C40–C160</text>
    <text x="34.50" y="46.01" text-anchor="end" font-size="3.0" fill="var(--graphite)" stroke="none" font-family="var(--mono)">C686</text>
    <text x="34.50" y="42.26" text-anchor="end" font-size="3.0" fill="var(--graphite)" stroke="none" font-family="var(--mono)">C373</text>
    <text x="34.50" y="26.13" text-anchor="end" font-size="3.0" fill="var(--graphite)" stroke="none" font-family="var(--mono)">C1000</text>
  </g>
</svg>
